<?xml version="1.0" encoding="UTF-8"?>
<svg xmlns="http://www.w3.org/2000/svg" viewBox="0 0 1024 1024"
     width="1024" height="1024">
  <defs>
    <linearGradient id="bg" x1="0" y1="0" x2="1" y2="1">
      <stop offset="0%"  stop-color="#1B2A4A"/>
      <stop offset="55%" stop-color="#132240"/>
      <stop offset="100%" stop-color="#0B1628"/>
    </linearGradient>
    <linearGradient id="logoBg" x1="0" y1="0" x2="1" y2="1">
      <stop offset="0%"  stop-color="#1B2A4A"/>
      <stop offset="100%" stop-color="#0B1628"/>
    </linearGradient>
    <radialGradient id="glow" cx="0.25" cy="0.15" r="0.9">
      <stop offset="0%"   stop-color="#0D9488" stop-opacity="0.20"/>
      <stop offset="60%"  stop-color="#0D9488" stop-opacity="0.03"/>
      <stop offset="100%" stop-color="#0D9488" stop-opacity="0"/>
    </radialGradient>
  </defs>

  <rect width="1024" height="1024" fill="url(#bg)"/>
  <rect width="1024" height="1024" fill="url(#glow)"/>

  
    <g opacity="0.08" transform="translate(820,200)">
      <circle r="340" fill="none" stroke="#0D9488" stroke-width="2"/>
      <circle r="240" fill="none" stroke="#0D9488" stroke-width="2"/>
      <circle r="150" fill="none" stroke="#0D9488" stroke-width="2"/>
      <circle r="80"  fill="none" stroke="#0D9488" stroke-width="2"/>
    </g>

  
  <g transform="translate(78,78) scale(0.1600)">
    <rect width="400" height="400" rx="80" fill="url(#logoBg)"/>
    <path d="M90 140 L130 290 L170 190 L200 290 L230 190 L270 290 L310 140"
          fill="none" stroke="#fff" stroke-width="18"
          stroke-linecap="round" stroke-linejoin="round"/>
    <path d="M90 140 L130 290 L170 190 L200 290 L230 190 L270 290 L310 140"
          fill="none" stroke="#0D9488" stroke-width="6"
          stroke-linecap="round" stroke-linejoin="round" opacity="0.9"/>
    <circle cx="320" cy="132" r="8"  fill="#0D9488" opacity="0.9"/>
    <circle cx="336" cy="120" r="5"  fill="#0D9488" opacity="0.6"/>
    <circle cx="348" cy="112" r="3"  fill="#0D9488" opacity="0.35"/>
  </g>
  <text x="160" y="125" font-family="Inter, system-ui, sans-serif"
        font-size="34" font-weight="600" fill="#FFFFFF" letter-spacing="-0.5">
    Wam<tspan fill="#0D9488">ply</tspan>
  </text>

  

  <text x="80" y="290" font-family="Inter, system-ui, sans-serif"
        font-size="72" font-weight="700" fill="#FFFFFF" letter-spacing="-1.5">
    Starter
  </text>
  <text x="80" y="325" font-family="Inter, system-ui, sans-serif"
        font-size="18" font-weight="500" fill="#94A3B8"
        letter-spacing="3">
    PIANO MENSILE
  </text>

  
  <g transform="translate(110,520)">
    <text x="0" y="0" font-family="Inter, system-ui, sans-serif"
          font-size="180" font-weight="700" fill="#FFFFFF"
          letter-spacing="-6">
      49
    </text>
    
    <text x="263" y="0"
          font-family="Inter, system-ui, sans-serif"
          font-size="96" font-weight="600" fill="#FFFFFF">
      &#8364;
    </text>
    <text x="6" y="58"
          font-family="Inter, system-ui, sans-serif"
          font-size="30" font-weight="400" fill="#94A3B8"
          letter-spacing="2">
      al mese
    </text>
  </g>

  
    
    <circle cx="102" cy="712" r="22" fill="#0D9488" opacity="0.15"/>
    <polyline points="92,712 99,720 114,702"
              fill="none" stroke="#0D9488" stroke-width="5"
              stroke-linecap="round" stroke-linejoin="round"/>
    <text x="142" y="720" font-family="Inter, system-ui, sans-serif"
          font-size="24" font-weight="400" fill="#E2E8F0">
      5 campagne / mese
    </text>
    
    <circle cx="102" cy="770" r="22" fill="#0D9488" opacity="0.15"/>
    <polyline points="92,770 99,778 114,760"
              fill="none" stroke="#0D9488" stroke-width="5"
              stroke-linecap="round" stroke-linejoin="round"/>
    <text x="142" y="778" font-family="Inter, system-ui, sans-serif"
          font-size="24" font-weight="400" fill="#E2E8F0">
      500 contatti
    </text>
    
    <circle cx="102" cy="828" r="22" fill="#0D9488" opacity="0.15"/>
    <polyline points="92,828 99,836 114,818"
              fill="none" stroke="#0D9488" stroke-width="5"
              stroke-linecap="round" stroke-linejoin="round"/>
    <text x="142" y="836" font-family="Inter, system-ui, sans-serif"
          font-size="24" font-weight="400" fill="#E2E8F0">
      2.500 messaggi WhatsApp
    </text>
    
    <circle cx="102" cy="886" r="22" fill="#0D9488" opacity="0.15"/>
    <polyline points="92,886 99,894 114,876"
              fill="none" stroke="#0D9488" stroke-width="5"
              stroke-linecap="round" stroke-linejoin="round"/>
    <text x="142" y="894" font-family="Inter, system-ui, sans-serif"
          font-size="24" font-weight="400" fill="#E2E8F0">
      BYOK: usa la tua API Claude
    </text>

  <text x="512" y="970" font-family="Inter, system-ui, sans-serif"
        font-size="20" font-weight="400" fill="#94A3B8"
        text-anchor="middle" letter-spacing="2">
    Amplify your WhatsApp campaigns with AI
  </text>
</svg>
